<svg xmlns="http://www.w3.org/2000/svg" width="500" height="500" viewBox="0 0 500 500">
  <g id="Group_408" data-name="Group 408" transform="translate(1279.976 -2524.988)">
    <rect width="500" height="500" rx="80" transform="translate(-1279.975 2524.988)" fill="#021111"/>
    <g id="Group_3" data-name="Group 3">
      <path id="Path_1168" data-name="Path 1168" d="M-900.037,2853.531c-4.025,5.368-5.942,12.461-5.943,21.087.592,23.623-11.655,43.594-33.547,43.151-96.521-1.957,7.829-250.051-89.515-296.9-31.521-15.169-74.572-13.573-99.1,19.361-.569-7.4,5.448-28.3-7.093-28.564-10.972.188-15.292,12.114-27.987,18.595-16.307,8.326-29.993,10.7-41.787,16.678-13.878,5.643-10.9,20.83-.768,26.068,10.281,6.167,13.617,13.512,13.229,28.755l-.027-.748v85.723c-.191,9.99-1.536,17.1-4.418,21.327a32.62,32.62,0,0,1-9.223,9.8,28.441,28.441,0,0,0-5.956,5.378c-1.787,2.177-2.609,4.765-2.585,8.646a8.22,8.22,0,0,0,3.353,6.533c2.115,1.73,6.341,2.5,12.49,2.5h77.239c6.341,0,10.567-.769,12.682-2.5a9.053,9.053,0,0,0,3.409-6.767,11.982,11.982,0,0,0-2.64-8.412,32.381,32.381,0,0,0-5.957-5.378,32.642,32.642,0,0,1-9.223-9.8q-4.323-6.341-4.611-21.327s-.243-95.7,11.376-127.914c8.8-24.4,38.252-34.563,53.287-13.994,5.559,7.86,9.2,18.212,10.927,31.438,4.4,28.846,2.657,133.578,3.067,164.8-.089,30.336,10.734,55.405,33.737,72.841,39.25,28.361,98.852,33.073,139.932,4.027,15.578-10.814,29.792-26.669,29.712-45.622C-843.551,2841.7-883.48,2829.785-900.037,2853.531Z" fill="#f7f9fc"/>
      <circle id="Ellipse_11" data-name="Ellipse 11" cx="32.498" cy="32.498" r="32.498" transform="translate(-1197.412 2878.97) rotate(-9.217)" fill="#00CCDD"/>
      <circle id="Ellipse_12" data-name="Ellipse 12" cx="32.498" cy="32.498" r="32.498" transform="translate(-908.501 2743.428)" fill="#00CCDD"/>
    </g>
  </g>
</svg>
