<svg xmlns="http://www.w3.org/2000/svg" width="1000" height="360" viewBox="0 0 1000 360">
  <g id="Group_413" data-name="Group 413" transform="translate(3670.103 180.253)">
    <path id="Path_1169" data-name="Path 1169" d="M-3152.588,21.563c-4.422-3.789-21.475-1.894-21.475-20.844V-103.918c0-23.579-8.421-40.844-21.9-53.056-17.685-16-44-22.738-71.163-22.738a161.738,161.738,0,0,0-52.634,9.264c-28.845,10.106-50.951,28-52.424,49.9-.632,10.739,2.526,18.95,7.789,24.424,17.265,18.737,58.531,9.053,61.689-23.581,2.736-27.791,20.843-35.581,37.265-33.265,12.422,1.685,21.686,13.894,20,31.792-2.738,25.474-64,34.107-105.27,62.739a105.843,105.843,0,0,0-20.421,18.318c-15.159,17.9-19.37,36.212-17.055,52.212,3.581,23.582,21.476,42.109,41.056,47.583,35.16,9.9,82.11-9.685,101.058-33.686.422,13.053,9.9,24.634,25.476,29.265,14.737,4.21,35.37,2.315,59.161-11.16C-3149.642,37.354-3145.431,27.458-3152.588,21.563Zm-93.676-18.389a3.924,3.924,0,0,1-.821,2.4c-16.183,20.473-57.212,22.016-64.25-7.379-8.871-38.076,48.785-78.586,63-87.91a1.986,1.986,0,0,1,3.072,1.691Zm-76.717,83.274c-4.44,5.921-6.554,13.744-6.555,23.258.653,26.055-12.855,48.682-37,48.192-106.457-2.157,8.635-275.79-98.729-327.46-34.766-16.731-82.249-14.971-109.306,21.353-.627-8.16,6.008-31.212-7.824-31.5-12.1.208-16.866,13.361-30.867,20.509-17.985,9.183-33.081,11.8-46.089,18.395-15.307,6.224-12.02,22.975-.846,28.752,11.339,6.8,15.018,14.9,14.59,31.715l-.029-.825V13.38c-.212,11.018-1.694,18.41-4.873,23.072a35.984,35.984,0,0,1-10.173,10.808,31.365,31.365,0,0,0-6.568,5.933c-1.972,2.4-2.878,5.255-2.852,9.536a9.062,9.062,0,0,0,3.7,7.2c2.332,1.908,6.994,2.756,13.776,2.756h85.19c6.994,0,11.655-.848,13.987-2.756a9.983,9.983,0,0,0,3.76-7.464,13.211,13.211,0,0,0-2.912-9.277,35.724,35.724,0,0,0-6.571-5.933,36.007,36.007,0,0,1-10.172-10.808c-3.179-4.662-4.873-12.054-5.085-23.072,0,0-.268-105.551,12.546-141.081,9.705-26.906,42.19-38.122,58.773-15.435,6.132,8.669,10.149,20.086,12.052,34.674,4.856,31.815,2.931,147.329,3.382,181.768-.1,33.459,11.84,61.109,37.211,80.34,43.29,31.28,109.027,36.477,154.336,4.441,17.181-11.926,32.859-30.014,32.77-50.918C-3260.681,73.4-3304.719,60.258-3322.981,86.448Zm646.364-253.528c-5.9-8-16.633-12.209-32.423-12.632a63.747,63.747,0,0,0-36.212,12,118.8,118.8,0,0,0-26.739,25.474,271.789,271.789,0,0,0-17.055,24.5c-.42.84-.84,1.473-1.263,2.315v-10.527c0-4.843-.307-13.033.22-22.572.455-8.232,6.052-31.442-7.882-31.736-12.189.21-16.99,13.46-31.094,20.661-18.118,9.25-33.325,11.886-46.428,18.53-15.42,6.27-12.109,23.143-.853,28.963,11.423,6.852,15.129,15.012,14.7,31.948l-.032-1.029-.033,94.377c-.21,10.973-1.687,18.782-4.852,23.424a35.843,35.843,0,0,1-10.13,10.764,31.22,31.22,0,0,0-6.542,5.907c-1.963,2.391-2.866,5.233-2.839,9.5a9.027,9.027,0,0,0,3.682,7.176c2.323,1.9,6.965,2.744,13.719,2.744h84.834c6.964,0,11.606-.845,13.929-2.744a9.946,9.946,0,0,0,3.744-7.433,13.161,13.161,0,0,0-2.9-9.239,35.551,35.551,0,0,0-6.544-5.907,35.858,35.858,0,0,1-10.13-10.764q-4.748-6.963-5.063-23.424s-.527-34.931-.134-43.637c.437-9.683,1.053-21.686,4.211-36,3.368-14.527,10.316-26.318,21.263-35.582,10.739-9.474,27.581-11.369,50.109-6.106,11.58,2.528,21.474.632,29.475-6.106a43.377,43.377,0,0,0,14.947-25.263A33.7,33.7,0,0,0-2676.617-167.08ZM-2897.85,21.563c-4.423-3.789-21.476-1.894-21.476-20.844V-103.918c0-23.579-8.421-40.844-21.9-53.056-17.686-16-44-22.738-71.163-22.738a161.749,161.749,0,0,0-52.635,9.264c-28.844,10.106-50.95,28-52.423,49.9-.632,10.739,2.526,18.95,7.789,24.424,17.265,18.737,58.531,9.053,61.689-23.581,2.735-27.791,20.843-35.581,37.265-33.265,12.422,1.685,21.686,13.894,20,31.792-2.738,25.474-64,34.107-105.27,62.739a105.8,105.8,0,0,0-20.421,18.318c-15.16,17.9-19.37,36.212-17.055,52.212,3.58,23.582,21.475,42.109,41.056,47.583,35.16,9.9,82.109-9.685,101.057-33.686.422,13.053,9.9,24.634,25.476,29.265,14.737,4.21,35.371,2.315,59.161-11.16C-2894.9,37.354-2890.693,27.458-2897.85,21.563Zm-93.676-18.389a3.941,3.941,0,0,1-.821,2.4c-16.183,20.472-57.212,22.015-64.251-7.38-8.87-38.076,48.785-78.586,63-87.91a1.987,1.987,0,0,1,3.073,1.691Z" fill="#fff"/>
    <circle id="Ellipse_13" data-name="Ellipse 13" cx="33.013" cy="33.013" r="33.013" transform="translate(-3040.298 72.765)" fill="#28b6cc"/>
    <circle id="Ellipse_14" data-name="Ellipse 14" cx="33.013" cy="33.013" r="33.013" transform="matrix(0.16, -0.987, 0.987, 0.16, -3190.371, 133.078)" fill="#28b6cc"/>
  </g>
</svg>
